<?xml version="1.0" standalone="no"?>
<!DOCTYPE svg PUBLIC "-//W3C//DTD SVG 20010904//EN"
 "http://www.w3.org/TR/2001/REC-SVG-20010904/DTD/svg10.dtd">
<svg version="1.0" xmlns="http://www.w3.org/2000/svg"
 width="420.000000pt" height="420.000000pt" viewBox="0 0 420.000000 420.000000"
 preserveAspectRatio="xMidYMid meet">
<metadata>
Created by potrace 1.11, written by Peter Selinger 2001-2013
</metadata>
<g transform="translate(0.000000,420.000000) scale(0.100000,-0.100000)"
fill="#000000" stroke="none">
<path d="M1696 3445 c-39 -21 -42 -25 -146 -217 -49 -92 -101 -186 -114 -210
-13 -24 -37 -68 -53 -98 l-30 -55 -99 -6 c-92 -7 -100 -9 -124 -35 -14 -16
-84 -137 -155 -269 -116 -215 -130 -245 -129 -287 1 -59 29 -94 85 -103 l39
-7 -71 -136 c-39 -76 -75 -141 -79 -147 -4 -5 -40 -73 -80 -150 -40 -77 -76
-144 -80 -150 -4 -5 -35 -64 -70 -130 -34 -66 -84 -161 -111 -210 -105 -195
-93 -348 33 -441 75 -56 42 -54 1202 -53 589 1 1082 4 1094 8 27 7 75 51 321
290 172 167 174 170 178 218 4 43 1 51 -28 83 l-32 35 -344 3 c-189 2 -343 5
-343 7 0 2 9 19 19 37 11 18 40 71 65 118 l45 85 304 5 c245 4 308 8 323 20
20 15 64 57 318 303 142 138 148 146 153 190 7 56 -10 87 -60 111 -31 14 -97
16 -611 16 -330 0 -576 4 -576 9 0 5 32 66 70 135 39 70 70 128 70 130 0 2 20
40 45 84 51 91 57 137 25 183 -28 38 -73 49 -202 49 -60 0 -108 3 -108 8 0 4
6 16 13 27 8 11 35 61 62 110 26 50 70 129 97 177 49 88 80 162 71 171 -2 3
-6 11 -7 19 -5 29 -27 56 -60 72 -30 14 -87 16 -463 16 -363 0 -432 -2 -457
-15z m444 -1336 c-26 -27 -70 -91 -97 -142 -69 -126 -130 -238 -178 -327 -40
-74 -40 -75 -84 -78 -23 -2 -41 0 -40 5 4 9 137 260 211 398 27 50 61 114 75
143 l27 52 67 0 67 0 -48 -51z"/>
</g>
</svg>
